<svg width="17" height="17" viewBox="0 0 17 17" fill="none" xmlns="http://www.w3.org/2000/svg">
<path d="M10.6252 1.41675H4.25016C3.87444 1.41675 3.5141 1.566 3.24843 1.83168C2.98275 2.09736 2.8335 2.45769 2.8335 2.83341V14.1667C2.8335 14.5425 2.98275 14.9028 3.24843 15.1685C3.5141 15.4342 3.87444 15.5834 4.25016 15.5834H12.7502C13.1259 15.5834 13.4862 15.4342 13.7519 15.1685C14.0176 14.9028 14.1668 14.5425 14.1668 14.1667V4.95841L10.6252 1.41675Z" stroke="#3093D1" stroke-width="1.41667" stroke-linecap="round" stroke-linejoin="round"/>
<path d="M9.9165 1.41675V4.25008C9.9165 4.6258 10.0658 4.98614 10.3314 5.25182C10.5971 5.51749 10.9574 5.66675 11.3332 5.66675H14.1665" stroke="#3093D1" stroke-width="1.41667" stroke-linecap="round" stroke-linejoin="round"/>
<path d="M7.08317 6.375H5.6665" stroke="#3093D1" stroke-width="1.41667" stroke-linecap="round" stroke-linejoin="round"/>
<path d="M11.3332 9.20825H5.6665" stroke="#3093D1" stroke-width="1.41667" stroke-linecap="round" stroke-linejoin="round"/>
<path d="M11.3332 12.0417H5.6665" stroke="#3093D1" stroke-width="1.41667" stroke-linecap="round" stroke-linejoin="round"/>
</svg>
